<?xml version="1.0" encoding="utf-8" standalone="no"?>
<!DOCTYPE svg PUBLIC "-//W3C//DTD SVG 1.1//EN"
  "http://www.w3.org/Graphics/SVG/1.1/DTD/svg11.dtd">
<svg xmlns:xlink="http://www.w3.org/1999/xlink" width="468pt" height="458.7pt" viewBox="0 0 468 458.7" xmlns="http://www.w3.org/2000/svg" version="1.1">
 <metadata>
  <rdf:RDF xmlns:dc="http://purl.org/dc/elements/1.1/" xmlns:cc="http://creativecommons.org/ns#" xmlns:rdf="http://www.w3.org/1999/02/22-rdf-syntax-ns#">
   <cc:Work>
    <dc:type rdf:resource="http://purl.org/dc/dcmitype/StillImage"/>
    <dc:date>2026-05-16T21:55:18.582953</dc:date>
    <dc:format>image/svg+xml</dc:format>
    <dc:creator>
     <cc:Agent>
      <dc:title>Matplotlib v3.10.9, https://matplotlib.org/</dc:title>
     </cc:Agent>
    </dc:creator>
   </cc:Work>
  </rdf:RDF>
 </metadata>
 <defs>
  <style type="text/css">*{stroke-linejoin: round; stroke-linecap: butt}</style>
 </defs>
 <g id="figure_1">
  <g id="patch_1">
   <path d="M 0 458.7 
L 468 458.7 
L 468 0 
L 0 0 
z
" style="fill: #ffffff"/>
  </g>
  <g id="axes_1">
   <g id="patch_2">
    <path d="M 234 263.45 
C 276.75074 263.45 317.756275 257.733878 347.985613 247.560543 
C 378.214951 237.387208 395.2 223.587268 395.2 209.2 
C 395.2 194.812732 378.214951 181.012792 347.985613 170.839457 
C 317.756275 160.666122 276.75074 154.95 234 154.95 
C 191.24926 154.95 150.243725 160.666122 120.014387 170.839457 
C 89.785049 181.012792 72.8 194.812732 72.8 209.2 
C 72.8 223.587268 89.785049 237.387208 120.014387 247.560543 
C 150.243725 257.733878 191.24926 263.45 234 263.45 
L 234 263.45 
z
" clip-path="url(#p7bbe0fe7a1)" style="fill: none; opacity: 0.35; stroke: #87909c; stroke-width: 1.5; stroke-linejoin: miter"/>
   </g>
   <g id="patch_3">
    <path d="M 280.981878 236.325 
C 302.357248 199.301773 317.909709 160.931877 324.214011 129.665835 
C 330.518314 98.399793 327.05974 76.790339 314.6 69.596705 
C 302.14026 62.403071 281.696637 70.212585 257.771602 91.305292 
C 233.846566 112.397999 208.393492 145.051773 187.018122 182.075 
C 165.642752 219.098227 150.090291 257.468123 143.785989 288.734165 
C 137.481686 320.000207 140.94026 341.609661 153.4 348.803295 
C 165.85974 355.996929 186.303363 348.187415 210.228398 327.094708 
C 234.153434 306.002001 259.606508 273.348227 280.981878 236.325 
L 280.981878 236.325 
z
" clip-path="url(#p7bbe0fe7a1)" style="fill: none; opacity: 0.35; stroke: #87909c; stroke-width: 1.5; stroke-linejoin: miter"/>
   </g>
   <g id="patch_4">
    <path d="M 187.018122 236.325 
C 208.393492 273.348227 233.846566 306.002001 257.771602 327.094708 
C 281.696637 348.187415 302.14026 355.996929 314.6 348.803295 
C 327.05974 341.609661 330.518314 320.000207 324.214011 288.734165 
C 317.909709 257.468123 302.357248 219.098227 280.981878 182.075 
C 259.606508 145.051773 234.153434 112.397999 210.228398 91.305292 
C 186.303363 70.212585 165.85974 62.403071 153.4 69.596705 
C 140.94026 76.790339 137.481686 98.399793 143.785989 129.665835 
C 150.090291 160.931877 165.642752 199.301773 187.018122 236.325 
L 187.018122 236.325 
z
" clip-path="url(#p7bbe0fe7a1)" style="fill: none; opacity: 0.35; stroke: #87909c; stroke-width: 1.5; stroke-linejoin: miter"/>
   </g>
   <g id="line2d_1">
    <path d="M 275.488932 222.680571 
L 276.058819 220.671493 
L 276.506849 218.446909 
L 276.7782 216.132355 
L 276.857845 213.837919 
L 276.750405 211.523218 
L 276.443637 209.146439 
L 275.947246 206.821479 
L 275.235293 204.456521 
L 274.334847 202.166346 
L 273.228746 199.91204 
L 271.881412 197.659065 
L 270.347461 195.520799 
L 268.596215 193.464416 
L 266.57791 191.466426 
L 264.377391 189.63507 
L 261.894809 187.913824 
L 259.237522 186.404947 
L 256.355567 185.099991 
L 254.241706 184.337697 
L 250.992673 183.459062 
L 248.7134 183.042174 
L 246.349814 182.776798 
L 243.826828 182.67797 
L 241.317342 182.76877 
L 238.753978 183.060189 
L 236.065868 183.590666 
L 233.447448 184.343819 
L 230.837779 185.349391 
L 228.267329 186.62158 
L 225.690646 188.227375 
L 223.316359 190.06807 
L 221.105405 192.187659 
L 219.105554 194.573226 
L 217.310909 197.291973 
L 215.881247 200.131548 
L 214.788518 203.12925 
L 214.055518 206.230927 
L 213.685681 209.483894 
L 213.698012 212.61978 
L 214.057335 215.691084 
L 214.737217 218.653465 
L 215.741997 221.562783 
L 216.970364 224.204654 
L 218.414217 226.658091 
L 220.039037 228.912805 
L 221.874178 231.029084 
L 223.771584 232.870218 
L 225.762601 234.510907 
L 227.824851 235.956366 
L 230.010072 237.251981 
L 232.160101 238.321904 
L 234.33034 239.219014 
L 236.508481 239.95146 
L 238.756322 240.543943 
L 241.994196 241.124365 
L 245.180069 241.396437 
L 248.361909 241.380729 
L 251.384758 241.100459 
L 254.369088 240.564535 
L 257.174099 239.815349 
L 259.856865 238.861107 
L 262.465047 237.690293 
L 264.87871 236.368838 
L 267.150489 234.887067 
L 269.321059 233.220047 
L 271.291657 231.452596 
L 273.14579 229.518211 
L 274.799224 227.512172 
L 276.290713 225.404328 
L 277.644758 223.155104 
L 278.799532 220.872519 
L 279.783569 218.518566 
L 280.610294 216.048801 
L 281.241257 213.580664 
L 281.702083 211.014921 
L 281.970565 208.473451 
L 282.056782 205.911264 
L 281.954776 203.281818 
L 281.667558 200.710646 
L 281.193912 198.152053 
L 280.51638 195.561942 
L 279.664249 193.065499 
L 278.60004 190.565269 
L 277.371027 188.183656 
L 275.957802 185.87977 
L 274.325214 183.620362 
L 272.547339 181.519439 
L 270.549004 179.500792 
L 268.421303 177.66994 
L 266.12701 176.000304 
L 263.613632 174.48138 
L 260.993358 173.201526 
L 258.214657 172.148173 
L 255.21104 171.327412 
L 252.115256 170.792969 
L 248.795671 170.536822 
L 245.406252 170.584704 
L 241.88892 170.943156 
L 238.176349 171.648478 
L 234.4462 172.690427 
L 231.913824 173.590358 
L 229.265156 174.703579 
L 226.676765 175.969465 
L 224.069776 177.434805 
L 221.451404 179.117705 
L 218.743871 181.111232 
L 216.136341 183.321782 
L 213.565078 185.85846 
L 211.074015 188.793467 
L 209.80621 190.557161 
L 208.681418 192.360225 
L 207.649816 194.329842 
L 206.760712 196.488647 
L 206.093042 198.852819 
L 205.768 201.409333 
L 205.941234 204.066153 
L 206.720236 206.603145 
L 208.125593 208.872892 
L 209.721246 210.461144 
L 211.360126 211.585077 
L 212.928875 212.362174 
L 214.387771 212.894787 
L 216.966075 213.494353 
L 219.221242 213.73166 
L 221.9383 213.723724 
L 224.851483 213.409093 
L 227.80927 212.817141 
L 231.182935 211.88953 
L 235.811013 210.357854 
L 240.152263 208.716194 
L 244.05157 206.995587 
L 247.353111 205.284974 
L 250.483922 203.393715 
L 253.265041 201.446457 
L 255.487068 199.669445 
L 257.860055 197.497045 
L 259.577953 195.693743 
L 261.2897 193.630144 
L 263.012083 191.147493 
L 263.851024 189.701068 
L 264.646761 188.082327 
L 265.359211 186.257135 
L 265.948431 184.041363 
L 266.213871 181.688727 
L 266.014333 179.114804 
L 265.165812 176.516131 
L 263.66842 174.217784 
L 261.765597 172.437044 
L 259.730666 171.165879 
L 257.722857 170.291891 
L 255.683205 169.673397 
L 253.885356 169.303117 
L 250.613368 168.967156 
L 247.721666 168.976521 
L 245.147828 169.199771 
L 241.707019 169.800053 
L 238.825887 170.574364 
L 236.288952 171.481838 
L 234.147114 172.44026 
L 231.742357 173.781514 
L 229.759658 175.181017 
L 228.190273 176.587028 
L 227.012947 177.954309 
L 226.161193 179.309403 
L 225.643496 180.590356 
L 225.428253 181.821503 
L 225.512678 182.942809 
L 225.764715 183.712063 
L 226.187442 184.42231 
L 226.761354 185.029623 
L 227.511312 185.545037 
L 228.404343 185.927454 
L 229.454574 186.166747 
L 230.68956 186.234143 
L 232.053036 186.090261 
L 233.564397 185.69195 
L 235.249523 184.956976 
L 236.413022 184.25729 
L 237.612549 183.345401 
L 238.866317 182.135011 
L 240.054667 180.648341 
L 241.151874 178.782324 
L 241.632485 177.682186 
L 242.039992 176.457026 
L 242.344529 175.098619 
L 242.511243 173.49944 
L 242.466341 171.867853 
L 242.167153 170.136393 
L 241.557599 168.361314 
L 240.603285 166.628962 
L 239.312439 165.040887 
L 237.741834 163.685096 
L 235.856727 162.549138 
L 233.986041 161.779908 
L 232.086795 161.2721 
L 230.205994 160.989559 
L 228.37209 160.895335 
L 226.600697 160.956505 
L 224.899324 161.145515 
L 221.613252 161.850042 
L 218.720088 162.828905 
L 216.088245 164.014147 
L 213.694759 165.34942 
L 211.449402 166.845785 
L 209.478149 168.378593 
L 207.689528 169.974567 
L 205.321059 172.455242 
L 203.257992 175.065519 
L 201.562581 177.665093 
L 200.138098 180.348724 
L 199.031003 182.983652 
L 198.196079 185.61462 
L 197.616057 188.287368 
L 197.31151 190.873843 
L 197.265011 193.42052 
L 197.484748 195.969385 
L 197.964071 198.395022 
L 198.72967 200.787655 
L 199.755814 203.022567 
L 201.065868 205.127385 
L 202.139622 206.485062 
L 203.316518 207.713001 
L 204.633249 208.841311 
L 206.094101 209.851349 
L 207.759114 210.745631 
L 209.523342 211.434819 
L 211.43702 211.909334 
L 213.491773 212.113703 
L 215.737039 211.959665 
L 216.850775 211.719004 
L 217.965639 211.348576 
L 219.0612 210.830346 
L 220.107067 210.146216 
L 221.059282 209.281961 
L 221.857848 208.235182 
L 222.45809 206.942913 
L 222.710864 205.630534 
L 222.624051 204.319832 
L 222.213014 203.118345 
L 221.541358 202.108945 
L 220.692878 201.331687 
L 219.74485 200.790001 
L 218.756457 200.466514 
L 217.703604 200.333448 
L 216.745986 200.380005 
L 215.834127 200.568138 
L 214.978552 200.877377 
L 213.459764 201.792286 
L 212.216218 203.014735 
L 211.228677 204.515464 
L 210.560853 206.134526 
L 210.172725 207.867941 
L 210.059142 209.674669 
L 210.223361 211.580791 
L 210.64681 213.430785 
L 211.321056 215.257294 
L 212.235129 217.034946 
L 213.418218 218.796957 
L 214.779671 220.410478 
L 216.339336 221.918878 
L 218.08288 223.311296 
L 220.063938 224.620683 
L 222.14388 225.758364 
L 224.376788 226.766677 
L 226.841868 227.671393 
L 229.38227 228.412078 
L 232.082678 229.015436 
L 234.956929 229.47184 
L 238.132052 229.769897 
L 241.434121 229.85724 
L 245.003727 229.688708 
L 248.89614 229.157254 
L 250.983591 228.69499 
L 253.323724 227.992913 
L 255.620031 227.059623 
L 257.977439 225.734944 
L 260.251481 223.834114 
L 262.042758 221.217511 
L 262.798101 218.195308 
L 262.539034 215.470804 
L 261.777165 213.32095 
L 260.79237 211.554827 
L 259.851821 210.254787 
L 258.090492 208.337674 
L 256.54981 207.011079 
L 254.602103 205.675696 
L 252.703671 204.713503 
L 251.3874 204.294013 
L 250.602897 204.238549 
L 250.310811 204.360864 
L 250.256418 204.593314 
L 250.432214 204.900357 
L 251.023404 205.405433 
L 252.000135 205.962415 
L 253.404461 206.547999 
L 255.210859 207.100083 
L 257.513657 207.585861 
L 260.287132 207.924369 
L 262.798858 208.033792 
L 265.626296 207.950401 
L 268.877386 207.587172 
L 271.402689 207.097326 
L 274.10145 206.348964 
L 277.079134 205.199077 
L 278.676199 204.405264 
L 280.33778 203.40579 
L 282.152777 202.033315 
L 283.821535 200.353834 
L 285.284878 198.177254 
L 286.207039 195.490546 
L 286.246221 192.607427 
L 285.46943 190.024591 
L 284.248327 187.954871 
L 282.869931 186.345294 
L 281.380426 185.011861 
L 280.024549 184.027486 
L 277.501061 182.596218 
L 275.246108 181.652614 
L 273.243247 181.036366 
L 270.607155 180.525608 
L 268.474608 180.378378 
L 266.694877 180.479016 
L 265.305996 180.756308 
L 264.237396 181.164963 
L 263.455595 181.683701 
L 262.980934 182.263062 
L 262.784894 182.891066 
L 262.868508 183.562348 
L 263.228462 184.227947 
L 263.885397 184.89642 
L 264.81973 185.516164 
L 266.056412 186.075878 
L 267.653678 186.552048 
L 269.569956 186.8797 
L 271.929592 187.008246 
L 273.711602 186.933488 
L 275.707259 186.685273 
L 277.938338 186.200144 
L 280.514134 185.342741 
L 281.863128 184.746397 
L 283.276031 183.990011 
L 284.741619 183.027758 
L 286.230971 181.795968 
L 287.676212 180.210145 
L 288.929169 178.180775 
L 289.720497 175.69687 
L 289.73155 172.803358 
L 288.951194 170.292869 
L 287.689589 168.224856 
L 286.219289 166.599953 
L 284.693921 165.332865 
L 283.185051 164.340152 
L 281.723863 163.558269 
L 278.899901 162.427602 
L 276.428274 161.771712 
L 274.199207 161.413931 
L 272.192464 161.274453 
L 269.504897 161.370411 
L 267.286088 161.729009 
L 265.434238 162.277141 
L 263.891211 162.982272 
L 262.703566 163.776986 
L 261.804011 164.66688 
L 261.222874 165.589028 
L 260.933181 166.540666 
L 260.938415 167.522502 
L 261.242743 168.470193 
L 261.868937 169.401176 
L 262.803949 170.246642 
L 264.078024 170.992239 
L 265.759748 171.602067 
L 267.081615 171.883879 
L 268.597445 172.041993 
L 270.324093 172.037092 
L 272.350233 171.79981 
L 274.564842 171.254319 
L 277.037693 170.250124 
L 278.361948 169.501669 
L 279.723965 168.527394 
L 281.170525 167.16465 
L 282.423981 165.500243 
L 283.394941 163.402826 
L 283.818534 160.940249 
L 283.504834 158.392785 
L 282.535951 156.102673 
L 281.171468 154.229052 
L 279.631857 152.755801 
L 277.936986 151.543341 
L 276.362964 150.669155 
L 274.832175 149.993056 
L 271.941701 149.083821 
L 269.29405 148.600402 
L 266.804026 148.415604 
L 264.615423 148.461652 
L 262.627762 148.677018 
L 259.992278 149.242021 
L 257.69213 150.04553 
L 255.797726 150.995318 
L 254.802597 151.63706 
L 254.802597 151.63706 
" clip-path="url(#p7bbe0fe7a1)" style="fill: none; stroke: #101418; stroke-opacity: 0.98; stroke-width: 1.7; stroke-linecap: round"/>
   </g>
   <g id="line2d_2">
    <path d="M 224.897845 166.628364 
L 222.88082 167.142011 
L 220.7387 167.869372 
L 218.607155 168.795026 
L 216.588683 169.876807 
L 214.646207 171.130987 
L 212.749839 172.589183 
L 210.993015 174.185875 
L 209.309585 175.98965 
L 207.785063 177.919493 
L 206.394544 180.009847 
L 205.126134 182.308958 
L 204.050353 184.71262 
L 203.154346 187.263982 
L 202.44291 190.0181 
L 201.966996 192.847127 
L 201.728082 195.866217 
L 201.760671 198.930991 
L 202.082752 202.089232 
L 202.487636 204.308441 
L 203.032174 206.480774 
L 203.736265 208.668117 
L 204.60941 210.859559 
L 205.699452 213.114631 
L 206.945767 215.272147 
L 208.389394 217.387092 
L 210.038229 219.438424 
L 211.964149 221.465355 
L 214.046494 223.308327 
L 216.343475 225.002757 
L 218.849556 226.513866 
L 221.645784 227.843325 
L 224.530662 228.866426 
L 227.561261 229.593641 
L 230.698067 229.993222 
L 233.999613 230.036618 
L 237.196426 229.707975 
L 240.336406 229.015392 
L 243.363065 227.973376 
L 246.31755 226.55839 
L 248.966245 224.899806 
L 251.376596 223.000477 
L 253.528826 220.90614 
L 255.47147 218.584925 
L 257.078126 216.229792 
L 258.421524 213.805724 
L 259.511841 211.345412 
L 260.386623 208.7944 
L 261.004744 206.34091 
L 261.413989 203.92142 
L 261.630079 201.55111 
L 261.666733 199.166321 
L 261.536654 196.930737 
L 261.257731 194.77379 
L 260.842906 192.701235 
L 259.970142 189.696891 
L 258.872153 186.970088 
L 257.534403 184.406102 
L 256.044512 182.119707 
L 254.401227 180.053916 
L 252.586629 178.169956 
L 250.700376 176.548467 
L 248.677821 175.115373 
L 246.623726 173.930593 
L 244.510079 172.957966 
L 242.302203 172.180158 
L 240.108976 171.628162 
L 237.894589 171.280008 
L 235.620526 171.132032 
L 233.396161 171.188075 
L 231.132881 171.448124 
L 228.93859 171.898634 
L 226.772908 172.541112 
L 224.597736 173.394491 
L 222.516317 174.420231 
L 220.489325 175.633723 
L 218.482281 177.067597 
L 216.59108 178.65942 
L 214.740789 180.480533 
L 213.021113 182.453165 
L 211.400619 184.617227 
L 209.857743 187.031089 
L 208.471927 189.595231 
L 207.196617 192.431381 
L 206.105254 195.426416 
L 205.191303 198.652846 
L 204.472314 202.207781 
L 204.023349 205.957957 
L 203.893941 208.619698 
L 203.934038 211.514826 
L 204.176398 214.462272 
L 204.665292 217.554206 
L 205.461138 220.781854 
L 206.687291 224.22912 
L 207.456274 225.91918 
L 208.354754 227.607561 
L 209.392036 229.277868 
L 210.574347 230.910065 
L 211.90311 232.481331 
L 213.373509 233.967784 
L 214.973907 235.346935 
L 216.804157 236.67903 
L 218.612173 237.784587 
L 220.485166 238.745936 
L 222.400434 239.56397 
L 224.338006 240.24434 
L 226.281391 240.795808 
L 230.137528 241.553822 
L 234.025705 241.927946 
L 237.662621 241.968875 
L 241.163455 241.751918 
L 244.525629 241.32051 
L 247.855897 240.684222 
L 250.942536 239.90974 
L 253.898453 238.998793 
L 256.726492 237.966959 
L 260.81963 236.179067 
L 264.544128 234.22145 
L 268.070119 232.039248 
L 271.248257 229.754644 
L 274.1625 227.345806 
L 276.87457 224.776786 
L 279.274899 222.177723 
L 281.483751 219.450769 
L 283.420284 216.733965 
L 285.143315 213.987676 
L 286.687584 211.165802 
L 287.988449 208.403753 
L 289.08426 205.651025 
L 289.995179 202.856768 
L 290.684297 200.151478 
L 291.184969 197.423645 
L 291.477915 194.800012 
L 291.578402 192.228675 
L 291.484163 189.662392 
L 291.200834 187.220856 
L 290.729554 184.855858 
L 290.054156 182.526539 
L 289.204065 180.343821 
L 288.140941 178.221649 
L 286.909797 176.264257 
L 285.487709 174.43779 
L 283.833859 172.722534 
L 282.016541 171.212394 
L 279.950309 169.864751 
L 277.719546 168.768316 
L 276.114289 168.177996 
L 274.412402 167.716748 
L 272.550465 167.394998 
L 270.647407 167.257307 
L 268.64496 167.321142 
L 266.54614 167.627519 
L 264.286159 168.260185 
L 262.035802 169.265333 
L 260.90401 169.951498 
L 259.785216 170.788498 
L 258.703158 171.804428 
L 257.698041 173.033435 
L 256.789778 174.620601 
L 256.218909 176.390811 
L 256.106984 178.389013 
L 256.638081 180.418702 
L 257.812149 182.154827 
L 259.385807 183.380112 
L 261.085802 184.102585 
L 262.752984 184.434626 
L 264.423128 184.482463 
L 265.868876 184.324694 
L 267.199061 184.026459 
L 269.541766 183.145147 
L 271.516093 182.021394 
L 273.230276 180.70799 
L 274.619709 179.346986 
L 275.778801 177.932552 
L 276.734143 176.487565 
L 277.529522 174.979155 
L 278.373844 172.786743 
L 278.889273 170.614788 
L 279.110861 168.435639 
L 279.055134 166.358567 
L 278.740771 164.303145 
L 278.197801 162.368509 
L 277.434995 160.517816 
L 276.438888 158.72124 
L 275.261409 157.065128 
L 273.890025 155.517702 
L 272.293454 154.057467 
L 270.54554 152.757803 
L 268.572145 151.572353 
L 266.461694 150.5653 
L 264.175219 149.723721 
L 261.657541 149.052214 
L 259.01943 148.600817 
L 256.209553 148.37788 
L 253.162078 148.418618 
L 250.013806 148.761725 
L 247.827009 149.182239 
L 245.498349 149.801451 
L 243.184925 150.604006 
L 240.823422 151.63671 
L 238.431297 152.937294 
L 235.9582 154.613788 
L 233.615012 156.621002 
L 232.487551 157.789907 
L 231.410216 159.082703 
L 230.405337 160.509534 
L 229.502849 162.078639 
L 228.697768 163.912531 
L 228.143766 165.773532 
L 227.84372 167.74351 
L 227.853797 169.766259 
L 228.208482 171.755499 
L 228.899637 173.609764 
L 229.870568 175.241139 
L 231.116125 176.681528 
L 232.387395 177.746095 
L 233.687442 178.558959 
L 234.969311 179.15637 
L 236.204601 179.575368 
L 238.481285 180.004767 
L 240.533379 180.045028 
L 242.234753 179.828616 
L 243.677671 179.447275 
L 244.88568 178.957768 
L 246.330871 178.083089 
L 247.323056 177.158434 
L 247.947772 176.222522 
L 248.246687 175.294336 
L 248.237837 174.442813 
L 247.946314 173.652858 
L 247.404696 172.976968 
L 246.625426 172.412593 
L 245.59665 171.96596 
L 244.373841 171.67085 
L 242.945688 171.530556 
L 241.280844 171.563252 
L 239.457451 171.784955 
L 237.39921 172.226061 
L 235.199292 172.89092 
L 232.817999 173.814778 
L 230.199185 175.063365 
L 227.460086 176.628615 
L 224.484848 178.644283 
L 222.454564 180.227345 
L 220.361013 182.06235 
L 218.217159 184.195995 
L 215.975691 186.782344 
L 213.833282 189.745492 
L 212.80186 191.433443 
L 211.824184 193.281998 
L 210.932455 195.30886 
L 210.172495 197.527827 
L 209.606185 199.94084 
L 209.299853 202.702553 
L 209.367734 205.403279 
L 209.820449 208.111964 
L 210.643992 210.720097 
L 211.775956 213.143537 
L 213.133658 215.340634 
L 214.640898 217.306034 
L 216.239562 219.054868 
L 218.000835 220.707235 
L 219.677515 222.081032 
L 223.045906 224.399912 
L 226.386187 226.245376 
L 229.671621 227.697463 
L 232.994047 228.837949 
L 236.126197 229.627187 
L 239.161874 230.132273 
L 242.084672 230.375436 
L 244.968536 230.375274 
L 247.611504 230.155595 
L 250.095638 229.743867 
L 252.410232 229.163411 
L 254.614925 228.410154 
L 256.560658 227.554359 
L 258.3161 226.593635 
L 259.87635 225.546205 
L 261.278342 224.39091 
L 262.426048 223.219066 
L 263.361606 222.010521 
L 264.096971 220.740575 
L 264.574246 219.509286 
L 264.807756 218.295985 
L 264.780427 217.124988 
L 264.454234 215.993039 
L 263.819301 215.018974 
L 262.82942 214.233427 
L 262.185128 213.944694 
L 261.430965 213.753007 
L 260.558943 213.690278 
L 259.492477 213.819733 
L 258.369145 214.205206 
L 257.164581 214.972181 
L 256.023533 216.30605 
L 255.345726 218.34699 
L 255.684744 220.78534 
L 257.019558 222.918338 
L 258.83905 224.469612 
L 260.93247 225.5901 
L 262.894435 226.27872 
L 264.805187 226.713613 
L 266.647764 226.957145 
L 268.41743 227.051637 
L 271.740789 226.90407 
L 274.89115 226.405784 
L 277.689663 225.681251 
L 280.263512 224.776132 
L 282.630348 223.729314 
L 284.873926 222.528427 
L 286.861603 221.272506 
L 288.678477 219.940824 
L 291.10028 217.829142 
L 293.217976 215.560557 
L 294.954554 213.261822 
L 296.397746 210.854852 
L 297.490903 208.464805 
L 298.271215 206.058561 
L 298.744141 203.6012 
L 298.88396 201.21901 
L 298.7954 199.653214 
L 298.546437 198.062641 
L 298.147987 196.558233 
L 297.588233 195.097715 
L 296.859324 193.692573 
L 295.918049 192.313958 
L 294.812688 191.069714 
L 293.500842 189.938673 
L 291.963799 188.95485 
L 290.114414 188.145762 
L 288.043915 187.643178 
L 286.896118 187.5333 
L 285.669801 187.548274 
L 284.365477 187.722055 
L 282.990712 188.103103 
L 281.475204 188.81772 
L 280.081243 189.882172 
L 278.886975 191.445402 
L 278.228218 193.520465 
L 278.446818 195.793657 
L 279.475816 197.768294 
L 280.943607 199.23155 
L 282.563235 200.236403 
L 284.30411 200.926726 
L 285.89014 201.310007 
L 287.410328 201.501546 
L 288.858187 201.544443 
L 291.537068 201.29847 
L 293.943627 200.732542 
L 296.170327 199.910166 
L 298.096523 198.944458 
L 299.816674 197.851387 
L 301.345981 196.658795 
L 302.738827 195.343812 
L 303.915548 194.00759 
L 304.931958 192.621521 
L 305.794453 191.19596 
L 306.829236 188.953059 
L 307.515291 186.714391 
L 307.890915 184.403086 
L 307.942933 182.139866 
L 307.681977 179.894218 
L 307.086354 177.638295 
L 306.514096 176.200165 
L 305.792017 174.797362 
L 304.882837 173.394656 
L 303.838352 172.093796 
L 302.623541 170.862185 
L 301.228157 169.716807 
L 299.583176 168.647393 
L 297.778875 167.753845 
L 295.746848 167.042373 
L 293.465539 166.576408 
L 292.224457 166.464704 
L 290.823517 166.460018 
L 289.437324 166.588453 
L 287.983898 166.879069 
L 286.47449 167.377693 
L 284.938049 168.147996 
L 283.442471 169.274478 
L 282.135953 170.846659 
L 281.28786 172.875534 
L 281.212742 175.286066 
L 281.929756 177.346005 
L 283.124858 178.96564 
L 284.52551 180.144338 
L 285.978102 180.967391 
L 287.411091 181.518242 
L 288.793311 181.860433 
L 290.112122 182.039911 
L 292.623417 182.028053 
L 294.78572 181.663005 
L 296.703671 181.053036 
L 298.397354 180.262215 
L 299.930631 179.300726 
L 301.219723 178.261864 
L 302.329492 177.139089 
L 303.269776 175.949615 
L 304.071804 174.664915 
L 304.690394 173.379331 
L 305.33851 171.39325 
L 305.595276 169.996929 
L 305.698726 167.946882 
L 305.486872 165.888625 
L 304.944527 163.797745 
L 304.091094 161.786954 
L 303.340663 160.477079 
L 302.408189 159.159006 
L 301.348805 157.927156 
L 300.128755 156.749191 
L 298.740355 155.638202 
L 297.11876 154.577939 
L 295.356693 153.658534 
L 293.390802 152.872608 
L 291.204305 152.259478 
L 288.692791 151.868398 
L 285.998685 151.815732 
L 284.55061 151.952421 
L 283.036811 152.231537 
L 281.464504 152.689459 
L 279.852092 153.375645 
L 278.135876 154.433789 
L 276.627223 155.815163 
L 275.398762 157.632001 
L 274.715373 159.816462 
L 274.76699 162.088279 
L 275.471507 164.105224 
L 276.569345 165.708162 
L 277.840039 166.913221 
L 279.245567 167.842354 
L 280.545996 168.4535 
L 281.800944 168.869056 
L 284.133024 169.264706 
L 286.213406 169.244563 
L 288.10802 168.919578 
L 289.711572 168.39046 
L 291.105566 167.702173 
L 292.30443 166.890547 
L 293.351153 165.950074 
L 294.188515 164.961835 
L 294.861447 163.912505 
L 295.547241 162.345768 
L 295.547241 162.345768 
" clip-path="url(#p7bbe0fe7a1)" style="fill: none; stroke: #101418; stroke-opacity: 0.72; stroke-width: 1.35; stroke-linecap: round"/>
   </g>
   <g id="line2d_3">
    <path d="M 201.613223 238.291065 
L 203.060361 239.786496 
L 204.754452 241.283719 
L 206.614645 242.672619 
L 208.553471 243.885274 
L 210.603389 244.945794 
L 212.806524 245.864379 
L 215.059739 246.592646 
L 217.455122 247.153829 
L 219.88009 247.514162 
L 222.37671 247.678113 
L 224.992454 247.631977 
L 227.602186 247.366581 
L 230.249439 246.871602 
L 232.979179 246.115474 
L 235.655613 245.117803 
L 238.377109 243.819959 
L 241.001807 242.264062 
L 243.561681 240.410776 
L 245.270659 238.953862 
L 246.868942 237.399385 
L 248.399771 235.699291 
L 249.848862 233.850824 
L 251.243295 231.782926 
L 252.47454 229.62848 
L 253.569138 227.324594 
L 254.504753 224.874983 
L 255.278591 222.197967 
L 255.813762 219.477575 
L 256.110992 216.645849 
L 256.142607 213.725003 
L 255.868204 210.644218 
L 255.281837 207.640013 
L 254.36265 204.657928 
L 253.102277 201.748115 
L 251.444513 198.874516 
L 249.512536 196.278142 
L 247.287447 193.913944 
L 244.809587 191.823887 
L 242.035302 189.984798 
L 239.197985 188.533715 
L 236.26427 187.411208 
L 233.283806 186.611435 
L 230.201516 186.108708 
L 227.254313 185.914488 
L 224.372402 185.983584 
L 221.578967 186.290563 
L 218.803719 186.830643 
L 216.238394 187.543757 
L 213.799909 188.42093 
L 211.49341 189.440966 
L 209.251553 190.624628 
L 207.219838 191.877711 
L 204.424986 193.921879 
L 201.875798 196.173886 
L 199.674117 198.496656 
L 197.750734 200.905174 
L 196.060494 203.427292 
L 194.665181 205.929588 
L 193.490892 208.502317 
L 192.577513 211.016029 
L 191.886366 213.511501 
L 191.399205 216.029736 
L 191.127641 218.449155 
L 191.050321 220.866036 
L 191.162117 223.165297 
L 191.451366 225.390994 
L 191.922717 227.581155 
L 192.548497 229.632162 
L 193.330369 231.584558 
L 194.284235 233.470176 
L 195.362272 235.198954 
L 196.606007 236.839257 
L 197.955238 238.311276 
L 199.429479 239.643343 
L 201.059298 240.850726 
L 202.767348 241.870819 
L 204.58101 242.720776 
L 206.536492 243.401432 
L 208.540439 243.869787 
L 210.672072 244.131162 
L 212.827413 244.157124 
L 215.038428 243.936566 
L 217.338464 243.433273 
L 219.605128 242.642961 
L 221.111133 241.937677 
L 222.64941 241.046706 
L 224.106077 240.016275 
L 225.512874 238.808507 
L 226.846197 237.411209 
L 228.113879 235.75581 
L 229.192072 233.939654 
L 230.069537 231.910052 
L 230.67659 229.678129 
L 230.930094 227.19944 
L 230.887386 225.961455 
L 230.723545 224.718047 
L 230.432295 223.488409 
L 230.012188 222.294522 
L 229.468026 221.15945 
L 228.811436 220.104892 
L 228.007263 219.088662 
L 227.179295 218.25002 
L 225.403352 216.917059 
L 223.603353 216.011223 
L 221.894936 215.454471 
L 220.293398 215.152806 
L 218.322308 215.041487 
L 216.338474 215.205969 
L 214.509389 215.499993 
L 214.503605 215.451468 
L 214.694379 215.130837 
L 215.907641 213.299841 
L 216.763485 211.460727 
L 217.299182 209.614642 
L 217.475614 208.493372 
L 217.53736 207.192322 
L 217.40508 205.694704 
L 216.957101 204.012943 
L 216.037215 202.238461 
L 214.537305 200.590729 
L 212.390655 199.276339 
L 210.125425 198.58931 
L 207.841126 198.371216 
L 205.650841 198.50386 
L 203.594096 198.88423 
L 201.676404 199.438892 
L 199.89061 200.117971 
L 198.225821 200.887503 
L 195.121501 202.670966 
L 192.483964 204.552373 
L 190.146622 206.521376 
L 188.064256 208.539882 
L 186.14352 210.652308 
L 183.714106 213.733248 
L 181.648656 216.802683 
L 179.859492 219.907539 
L 178.383797 222.900106 
L 177.122965 225.90504 
L 176.105866 228.786461 
L 175.046409 232.533243 
L 174.278754 236.226838 
L 173.794315 239.743846 
L 173.548292 243.200723 
L 173.526372 246.538109 
L 173.702947 249.705093 
L 174.065751 252.808558 
L 174.741399 256.465917 
L 175.658898 259.996898 
L 176.770339 263.311647 
L 178.083908 266.501009 
L 179.56722 269.520462 
L 181.183532 272.331536 
L 182.96609 275.00815 
L 184.882536 277.512253 
L 186.893595 279.812878 
L 189.042525 281.968669 
L 191.263648 283.919661 
L 193.607772 285.714321 
L 196.038147 287.321708 
L 198.5141 288.720623 
L 201.095095 289.944516 
L 203.742467 290.969492 
L 206.41449 291.782008 
L 209.177144 292.399631 
L 211.99021 292.805987 
L 214.811126 292.995789 
L 217.710741 292.970067 
L 220.608594 292.725811 
L 223.577687 292.253269 
L 226.57491 291.55174 
L 229.554671 290.63344 
L 232.588604 289.472427 
L 235.626564 288.073997 
L 238.619391 286.449719 
L 241.640014 284.545737 
L 244.640242 282.374437 
L 247.570435 279.963047 
L 250.495321 277.240144 
L 253.321988 274.269462 
L 256.106455 270.962579 
L 258.267642 268.085355 
L 260.314648 265.055307 
L 262.299524 261.765093 
L 264.138683 258.316042 
L 265.87112 254.586284 
L 267.414045 250.691402 
L 268.786914 246.495175 
L 269.650547 243.243655 
L 270.366659 239.858107 
L 270.923062 236.258434 
L 271.268781 232.602329 
L 271.386332 228.730722 
L 271.232501 224.817981 
L 270.768223 220.790211 
L 270.242057 217.954534 
L 269.5555 215.168204 
L 268.682685 212.347518 
L 267.614252 209.503965 
L 266.295561 206.559317 
L 264.803393 203.725645 
L 263.092483 200.933706 
L 261.16042 198.212423 
L 258.934906 195.507035 
L 256.569249 193.022606 
L 254.010792 190.696505 
L 251.27957 188.550308 
L 248.29982 186.538547 
L 245.287777 184.802063 
L 242.172618 183.279104 
L 238.976432 181.973005 
L 235.611229 180.852122 
L 232.315494 179.98741 
L 229.001881 179.335468 
L 225.690097 178.890217 
L 222.289618 178.638062 
L 219.037281 178.583816 
L 215.837701 178.702859 
L 212.703054 178.980471 
L 208.043484 179.678636 
L 203.675104 180.633674 
L 199.413714 181.837063 
L 195.445881 183.193036 
L 191.672895 184.689739 
L 188.010824 186.335171 
L 183.517155 188.619352 
L 179.253743 191.066493 
L 175.335811 193.562175 
L 171.615768 196.162764 
L 167.38368 199.418887 
L 163.453904 202.758588 
L 159.858474 206.118073 
L 156.613232 209.43782 
L 153.60802 212.795117 
L 150.354013 216.794446 
L 147.47271 220.717965 
L 144.868757 224.64516 
L 142.547391 228.526392 
L 140.165635 232.983144 
L 138.097222 237.363995 
L 136.315464 241.661413 
L 134.813126 245.831092 
L 133.543601 249.946668 
L 132.380504 254.521939 
L 131.506687 258.960191 
L 130.907796 263.257461 
L 130.570398 267.412113 
L 130.481176 271.424397 
L 130.626365 275.295781 
L 130.991643 279.027597 
L 131.564858 282.618816 
L 132.336193 286.068221 
L 133.295986 289.373244 
L 134.436665 292.530064 
L 135.76398 295.559013 
L 137.251444 298.407129 
L 138.905112 301.097532 
L 140.720829 303.629049 
L 142.693599 306.001561 
L 144.817447 308.214305 
L 147.087954 310.264818 
L 149.500034 312.150874 
L 151.650162 313.617172 
L 151.650162 313.617172 
" clip-path="url(#p7bbe0fe7a1)" style="fill: none; stroke: #101418; stroke-opacity: 0.86; stroke-width: 1.5; stroke-linecap: round"/>
   </g>
   <g id="patch_5">
    <path d="M 234 226.56 
C 238.603926 226.56 243.019907 224.730841 246.275374 221.475374 
C 249.530841 218.219907 251.36 213.803926 251.36 209.2 
C 251.36 204.596074 249.530841 200.180093 246.275374 196.924626 
C 243.019907 193.669159 238.603926 191.84 234 191.84 
C 229.396074 191.84 224.980093 193.669159 221.724626 196.924626 
C 218.469159 200.180093 216.64 204.596074 216.64 209.2 
C 216.64 213.803926 218.469159 218.219907 221.724626 221.475374 
C 224.980093 224.730841 229.396074 226.56 234 226.56 
L 234 226.56 
z
" clip-path="url(#p7bbe0fe7a1)" style="fill: none; opacity: 0.38; stroke: #101418; stroke-width: 1.2; stroke-linejoin: miter"/>
   </g>
   <g id="patch_6">
    <path d="M 234 219.43 
C 236.713028 219.43 239.315302 218.352103 241.233702 216.433702 
C 243.152103 214.515302 244.23 211.913028 244.23 209.2 
C 244.23 206.486972 243.152103 203.884698 241.233702 201.966298 
C 239.315302 200.047897 236.713028 198.97 234 198.97 
C 231.286972 198.97 228.684698 200.047897 226.766298 201.966298 
C 224.847897 203.884698 223.77 206.486972 223.77 209.2 
C 223.77 211.913028 224.847897 214.515302 226.766298 216.433702 
C 228.684698 218.352103 231.286972 219.43 234 219.43 
z
" clip-path="url(#p7bbe0fe7a1)" style="fill: #101418"/>
   </g>
   <g id="patch_7">
    <path d="M 275.811738 232.007616 
C 277.373784 232.007616 278.872064 231.387008 279.976597 230.282475 
C 281.081131 229.177941 281.701738 227.679662 281.701738 226.117616 
C 281.701738 224.555569 281.081131 223.05729 279.976597 221.952757 
C 278.872064 220.848223 277.373784 220.227616 275.811738 220.227616 
C 274.249692 220.227616 272.751413 220.848223 271.646879 221.952757 
C 270.542346 223.05729 269.921738 224.555569 269.921738 226.117616 
C 269.921738 227.679662 270.542346 229.177941 271.646879 230.282475 
C 272.751413 231.387008 274.249692 232.007616 275.811738 232.007616 
z
" clip-path="url(#p7bbe0fe7a1)" style="fill: #101418; opacity: 0.95"/>
   </g>
   <g id="patch_8">
    <path d="M 244.348437 154.825987 
C 245.581631 154.825987 246.764483 154.336034 247.636483 153.464034 
C 248.508484 152.592034 248.998437 151.409182 248.998437 150.175987 
C 248.998437 148.942793 248.508484 147.759941 247.636483 146.887941 
C 246.764483 146.015941 245.581631 145.525987 244.348437 145.525987 
C 243.115243 145.525987 241.932391 146.015941 241.06039 146.887941 
C 240.18839 147.759941 239.698437 148.942793 239.698437 150.175987 
C 239.698437 151.409182 240.18839 152.592034 241.06039 153.464034 
C 241.932391 154.336034 243.115243 154.825987 244.348437 154.825987 
z
" clip-path="url(#p7bbe0fe7a1)" style="fill: #101418; opacity: 0.95"/>
   </g>
   <g id="patch_9">
    <path d="M 132.508673 259.232089 
C 133.906294 259.232089 135.246859 258.676808 136.235126 257.688541 
C 137.223393 256.700274 137.778673 255.359709 137.778673 253.962089 
C 137.778673 252.564468 137.223393 251.223903 136.235126 250.235636 
C 135.246859 249.247369 133.906294 248.692089 132.508673 248.692089 
C 131.111053 248.692089 129.770487 249.247369 128.782221 250.235636 
C 127.793954 251.223903 127.238673 252.564468 127.238673 253.962089 
C 127.238673 255.359709 127.793954 256.700274 128.782221 257.688541 
C 129.770487 258.676808 131.111053 259.232089 132.508673 259.232089 
z
" clip-path="url(#p7bbe0fe7a1)" style="fill: #101418; opacity: 0.95"/>
   </g>
   <g id="text_1">
    <!-- ORIGENLAB -->
    <g style="fill: #101418" transform="translate(155.925 414.2225) scale(0.24 -0.24)">
     <defs>
      <path id="DejaVuSans-Bold-4f" d="M 2719 3878 
Q 2169 3878 1866 3472 
Q 1563 3066 1563 2328 
Q 1563 1594 1866 1187 
Q 2169 781 2719 781 
Q 3272 781 3575 1187 
Q 3878 1594 3878 2328 
Q 3878 3066 3575 3472 
Q 3272 3878 2719 3878 
z
M 2719 4750 
Q 3844 4750 4481 4106 
Q 5119 3463 5119 2328 
Q 5119 1197 4481 553 
Q 3844 -91 2719 -91 
Q 1597 -91 958 553 
Q 319 1197 319 2328 
Q 319 3463 958 4106 
Q 1597 4750 2719 4750 
z
" transform="scale(0.015625)"/>
      <path id="DejaVuSans-Bold-52" d="M 2297 2597 
Q 2675 2597 2839 2737 
Q 3003 2878 3003 3200 
Q 3003 3519 2839 3656 
Q 2675 3794 2297 3794 
L 1791 3794 
L 1791 2597 
L 2297 2597 
z
M 1791 1766 
L 1791 0 
L 588 0 
L 588 4666 
L 2425 4666 
Q 3347 4666 3776 4356 
Q 4206 4047 4206 3378 
Q 4206 2916 3982 2619 
Q 3759 2322 3309 2181 
Q 3556 2125 3751 1926 
Q 3947 1728 4147 1325 
L 4800 0 
L 3519 0 
L 2950 1159 
Q 2778 1509 2601 1637 
Q 2425 1766 2131 1766 
L 1791 1766 
z
" transform="scale(0.015625)"/>
      <path id="DejaVuSans-Bold-49" d="M 588 4666 
L 1791 4666 
L 1791 0 
L 588 0 
L 588 4666 
z
" transform="scale(0.015625)"/>
      <path id="DejaVuSans-Bold-47" d="M 4781 347 
Q 4331 128 3847 18 
Q 3363 -91 2847 -91 
Q 1681 -91 1000 561 
Q 319 1213 319 2328 
Q 319 3456 1012 4103 
Q 1706 4750 2913 4750 
Q 3378 4750 3804 4662 
Q 4231 4575 4609 4403 
L 4609 3438 
Q 4219 3659 3833 3768 
Q 3447 3878 3059 3878 
Q 2341 3878 1952 3476 
Q 1563 3075 1563 2328 
Q 1563 1588 1938 1184 
Q 2313 781 3003 781 
Q 3191 781 3352 804 
Q 3513 828 3641 878 
L 3641 1784 
L 2906 1784 
L 2906 2591 
L 4781 2591 
L 4781 347 
z
" transform="scale(0.015625)"/>
      <path id="DejaVuSans-Bold-45" d="M 588 4666 
L 3834 4666 
L 3834 3756 
L 1791 3756 
L 1791 2888 
L 3713 2888 
L 3713 1978 
L 1791 1978 
L 1791 909 
L 3903 909 
L 3903 0 
L 588 0 
L 588 4666 
z
" transform="scale(0.015625)"/>
      <path id="DejaVuSans-Bold-4e" d="M 588 4666 
L 1931 4666 
L 3628 1466 
L 3628 4666 
L 4769 4666 
L 4769 0 
L 3425 0 
L 1728 3200 
L 1728 0 
L 588 0 
L 588 4666 
z
" transform="scale(0.015625)"/>
      <path id="DejaVuSans-Bold-4c" d="M 588 4666 
L 1791 4666 
L 1791 909 
L 3903 909 
L 3903 0 
L 588 0 
L 588 4666 
z
" transform="scale(0.015625)"/>
      <path id="DejaVuSans-Bold-41" d="M 3419 850 
L 1538 850 
L 1241 0 
L 31 0 
L 1759 4666 
L 3194 4666 
L 4922 0 
L 3713 0 
L 3419 850 
z
M 1838 1716 
L 3116 1716 
L 2478 3572 
L 1838 1716 
z
" transform="scale(0.015625)"/>
      <path id="DejaVuSans-Bold-42" d="M 2456 2859 
Q 2741 2859 2887 2984 
Q 3034 3109 3034 3353 
Q 3034 3594 2887 3720 
Q 2741 3847 2456 3847 
L 1791 3847 
L 1791 2859 
L 2456 2859 
z
M 2497 819 
Q 2859 819 3042 972 
Q 3225 1125 3225 1434 
Q 3225 1738 3044 1889 
Q 2863 2041 2497 2041 
L 1791 2041 
L 1791 819 
L 2497 819 
z
M 3616 2497 
Q 4003 2384 4215 2081 
Q 4428 1778 4428 1338 
Q 4428 663 3972 331 
Q 3516 0 2584 0 
L 588 0 
L 588 4666 
L 2394 4666 
Q 3366 4666 3802 4372 
Q 4238 4078 4238 3431 
Q 4238 3091 4078 2852 
Q 3919 2613 3616 2497 
z
" transform="scale(0.015625)"/>
     </defs>
     <use xlink:href="#DejaVuSans-Bold-4f"/>
     <use xlink:href="#DejaVuSans-Bold-52" transform="translate(85.009766 0)"/>
     <use xlink:href="#DejaVuSans-Bold-49" transform="translate(162.011719 0)"/>
     <use xlink:href="#DejaVuSans-Bold-47" transform="translate(199.21875 0)"/>
     <use xlink:href="#DejaVuSans-Bold-45" transform="translate(281.298828 0)"/>
     <use xlink:href="#DejaVuSans-Bold-4e" transform="translate(349.609375 0)"/>
     <use xlink:href="#DejaVuSans-Bold-4c" transform="translate(433.300781 0)"/>
     <use xlink:href="#DejaVuSans-Bold-41" transform="translate(497.021484 0)"/>
     <use xlink:href="#DejaVuSans-Bold-42" transform="translate(574.414062 0)"/>
    </g>
   </g>
  </g>
 </g>
 <defs>
  <clipPath id="p7bbe0fe7a1">
   <rect x="10.8" y="10.8" width="446.4" height="437.1"/>
  </clipPath>
 </defs>
</svg>
