<?xml version="1.0" encoding="UTF-8"?>
<!-- OrigenLab email signature lockup - export 480x110 or 960x220 PNG -->
<svg xmlns="http://www.w3.org/2000/svg" viewBox="0 0 480 110" width="480" height="110" role="img" aria-label="OrigenLab">
  <rect width="480" height="110" rx="10" ry="10" fill="#042f2e"/>
  <g transform="translate(72 55)">
    <ellipse cx="0" cy="0" rx="40" ry="14" fill="none" stroke="#14b8a6" stroke-width="2.8" opacity="0.95"/>
    <ellipse cx="0" cy="0" rx="40" ry="14" fill="none" stroke="#14b8a6" stroke-width="2.8" opacity="0.95" transform="rotate(60)"/>
    <ellipse cx="0" cy="0" rx="40" ry="14" fill="none" stroke="#14b8a6" stroke-width="2.8" opacity="0.95" transform="rotate(-60)"/>
    <path d="M 24 -10 L 28 -6 L 26 0 L 18 4 L 6 3 L -6 -2 L -16 -1 L -20 5 L -18 11 L -12 14 L -2 13 L 6 4 L 12 -6 L 20 -10 Z" fill="none" stroke="#99f6e4" stroke-width="3" stroke-linecap="round" stroke-linejoin="round" opacity="0.88"/>
    <path d="M -24 10 L -14 10 L -4 4 L 4 -6 L 14 -12 L 20 -9 L 23 -4 L 20 2 L 12 6 L 0 5 L -12 2 L -20 6 L -22 10 Z" fill="none" stroke="#5eead4" stroke-width="3" stroke-linecap="round" stroke-linejoin="round" opacity="0.82"/>
    <path d="M 0 0 L -12 -3 L -18 2 L -19 8 L -14 13 L -4 12 L 4 6 L 10 -4 L 18 -10 L 22 -7 L 23 -2 L 18 4 L 8 6 L -2 4 L -8 10 L -6 14 L 0 0 Z" fill="none" stroke="#2dd4bf" stroke-width="3" stroke-linecap="round" stroke-linejoin="round" opacity="0.78"/>
    <circle cx="0" cy="0" r="7" fill="#f0fdfa"/>
    <circle cx="0" cy="0" r="4.5" fill="#042f2e"/>
    <circle cx="23.5" cy="-10.2" r="7.5" fill="#ccfbf1" stroke="#f0fdfa" stroke-width="1.5"/>
    <circle cx="-14.6" cy="13.6" r="7.5" fill="#99f6e4" stroke="#f0fdfa" stroke-width="1.5"/>
    <circle cx="-8.9" cy="-3.5" r="7.5" fill="#5eead4" stroke="#f0fdfa" stroke-width="1.5"/>
  </g>
  <text x="138" y="64" font-family="Arial, Helvetica, sans-serif" font-size="34" font-weight="700" fill="#ffffff" letter-spacing="-0.5">OrigenLab</text>
  <text x="139" y="84" font-family="Arial, Helvetica, sans-serif" font-size="11" font-weight="400" fill="#99f6e4" letter-spacing="0.6">EQUIPOS PARA LABORATORIO</text>
</svg>
