<?xml version="1.0" encoding="UTF-8"?>
<svg xmlns="http://www.w3.org/2000/svg" viewBox="-3.5 -3.5 7 7" role="img" aria-label="OrigenLab">
  <rect width="7" height="7" x="-3.5" y="-3.5" fill="#042f2e"/>
  <ellipse cx="0" cy="0" rx="3.17" ry="1.01" transform="rotate(0)" fill="none" stroke="#0f766e" stroke-width="0.06" opacity="0.08"/>
  <path d="M 1.683 -1.054 L 1.962 -0.824 L 2.069 -0.531 L 2.008 -0.187 L 1.682 0.172 L 1.007 0.324 L 0.214 0.096 L -0.561 -0.238 L -1.340 -0.312 L -1.868 -0.031 L -2.062 0.333 L -2.046 0.654 L -1.871 0.925 L -1.499 1.107 L -0.902 1.026 L -0.311 0.504 L 0.123 -0.222 L 0.637 -0.867 L 1.272 -1.130 L 1.742 -1.027 L 1.991 -0.784 L 2.075 -0.483 L 1.982 -0.133 L 1.606 0.216 L 0.893 0.313 L 0.103 0.046 L -0.677 -0.271 L -1.440 -0.285 L -1.914 0.027 L -2.069 0.387 L -2.027 0.701 L -1.826 0.963 L -1.418 1.120 L -0.800 0.973 L -0.238 0.398 L 0.190 -0.332 L 0.730 -0.937 L 1.356 -1.133 L 1.789 -0.999 L 2.011 -0.745 L 2.071 -0.437 L 1.945 -0.080 L 1.515 0.253 L 0.768 0.289 L -0.018 -0.011 L -0.804 -0.302 L -1.541 -0.250 L -1.957 0.085 L -2.075 0.440 L -2.010 0.746 L -1.782 0.998 L -1.339 1.127 L -0.707 0.914 L -0.173 0.297 L 0.256 -0.432 L 0.823 -0.993 L 1.435 -1.125 L 1.684 -1.055" fill="none" stroke="#99f6e4" stroke-width="0.14" stroke-linecap="round" stroke-linejoin="round" opacity="0.92"/>
  <path d="M -1.683 1.054 L -1.176 1.118 L -0.542 0.781 L -0.057 0.104 L 0.391 -0.611 L 1.003 -1.070 L 1.572 -1.093 L 1.909 -0.891 L 2.060 -0.612 L 2.050 -0.283 L 1.815 0.082 L 1.234 0.327 L 0.444 0.196 L -0.331 -0.146 L -1.127 -0.326 L -1.755 -0.119 L -2.030 0.246 L -2.062 0.583 L -1.931 0.868 L -1.621 1.083 L -1.081 1.100 L -0.458 0.696 L 0.004 -0.003 L 0.469 -0.701 L 1.096 -1.097 L 1.633 -1.072 L 1.939 -0.853 L 2.066 -0.566 L 2.029 -0.229 L 1.747 0.134 L 1.113 0.332 L 0.319 0.145 L -0.456 -0.196 L -1.247 -0.320 L -1.822 -0.067 L -2.050 0.299 L -2.055 0.628 L -1.901 0.905 L -1.559 1.103 L -0.988 1.071 L -0.380 0.604 L 0.066 -0.111 L 0.555 -0.786 L 1.192 -1.113 L 1.695 -1.042 L 1.970 -0.809 L 2.073 -0.515 L 2.006 -0.170 L 1.673 0.185 L 0.995 0.329 L 0.203 0.096 L -0.573 -0.237 L -1.352 -0.303 L -1.874 -0.015 L -2.061 0.349 L -2.041 0.670 L -1.861 0.938 L -1.682 1.055" fill="none" stroke="#5eead4" stroke-width="0.14" stroke-linecap="round" stroke-linejoin="round" opacity="0.84"/>
  <path d="M 0.000 -0.000 L -0.786 -0.294 L -1.527 -0.250 L -1.951 0.083 L -2.073 0.439 L -2.011 0.746 L -1.786 0.998 L -1.347 1.129 L -0.719 0.924 L -0.182 0.314 L 0.248 -0.414 L 0.812 -0.981 L 1.427 -1.121 L 1.830 -0.962 L 2.028 -0.700 L 2.066 -0.385 L 1.907 -0.024 L 1.426 0.284 L 0.660 0.262 L -0.120 -0.056 L -0.910 -0.316 L -1.617 -0.212 L -1.986 0.136 L -2.075 0.485 L -1.989 0.784 L -1.737 1.025 L -1.262 1.124 L -0.626 0.851 L -0.115 0.203 L 0.322 -0.521 L 0.915 -1.033 L 1.507 -1.108 L 1.874 -0.924 L 2.047 -0.653 L 2.060 -0.331 L 1.861 0.033 L 1.326 0.309 L 0.545 0.229 L -0.231 -0.104 L -1.023 -0.325 L -1.692 -0.167 L -2.011 0.191 L -2.070 0.533 L -1.960 0.825 L -1.677 1.053 L -1.165 1.111 L -0.532 0.765 L -0.049 0.085 L 0.402 -0.625 L 1.015 -1.075 L 1.578 -1.094 L 1.911 -0.891 L 2.059 -0.612 L 2.047 -0.282 L 1.806 0.083 L 1.218 0.323 L 0.426 0.186 L -0.002 -0.000" fill="none" stroke="#2dd4bf" stroke-width="0.14" stroke-linecap="round" stroke-linejoin="round" opacity="0.76"/>
  <circle cx="0" cy="0" r="0.32" fill="none" stroke="#2dd4bf" stroke-width="0.05" opacity="0.2"/>
  <circle cx="0" cy="0" r="0.18" fill="#ccfbf1"/>
  <circle cx="1.954" cy="-0.840" r="0.187" fill="#99f6e4" opacity="0.28"/>
  <circle cx="1.954" cy="-0.840" r="0.085" fill="#99f6e4"/>
  <circle cx="-1.211" cy="1.125" r="0.187" fill="#5eead4" opacity="0.28"/>
  <circle cx="-1.211" cy="1.125" r="0.085" fill="#5eead4"/>
  <circle cx="-0.743" cy="-0.285" r="0.187" fill="#2dd4bf" opacity="0.28"/>
  <circle cx="-0.743" cy="-0.285" r="0.085" fill="#2dd4bf"/>
  
</svg>