<?xml version="1.0" encoding="UTF-8"?>
<svg xmlns="http://www.w3.org/2000/svg" viewBox="-3.5 -3.5 7 7" role="img" aria-label="OrigenLab">
  <rect width="7" height="7" x="-3.5" y="-3.5" fill="#042f2e"/>
  <ellipse cx="0" cy="0" rx="3.31" ry="1.12" transform="rotate(0)" fill="none" stroke="#0f766e" stroke-width="0.06" opacity="0.1"/>
  <ellipse cx="0" cy="0" rx="3.31" ry="1.12" transform="rotate(60)" fill="none" stroke="#0f766e" stroke-width="0.06" opacity="0.09"/>
  <ellipse cx="0" cy="0" rx="3.31" ry="1.12" transform="rotate(-60)" fill="none" stroke="#0f766e" stroke-width="0.06" opacity="0.09"/>
  <path d="M 1.683 -1.054 L 2.024 -0.711 L 2.035 -0.255 L 1.562 0.235 L 0.508 0.214 L -0.586 -0.246 L -1.617 -0.217 L -2.049 0.278 L -2.017 0.727 L -1.653 1.061 L -0.861 1.006 L -0.099 0.170 L 0.562 -0.801 L 1.429 -1.127 L 1.933 -0.867 L 2.074 -0.453 L 1.839 0.052 L 0.968 0.322 L -0.137 -0.065 L -1.242 -0.324 L -1.948 0.073 L -2.067 0.560 L -1.844 0.949 L -1.222 1.118 L -0.359 0.569 L 0.261 -0.442 L 1.093 -1.104 L 1.779 -1.005 L 2.052 -0.635 L 1.994 -0.161 L 1.392 0.292 L 0.296 0.131 L -0.804 -0.302 L -1.755 -0.129 L -2.069 0.377 L -1.975 0.807 L -1.534 1.104 L -0.688 0.900 L 0.012 -0.024 L 0.723 -0.930 L 1.557 -1.101 L 1.684 -1.055" fill="none" stroke="#99f6e4" stroke-width="0.12" stroke-linecap="round" stroke-linejoin="round" opacity="0.85"/>
  <path d="M -1.683 1.054 L -0.915 1.038 L -0.136 0.241 L 0.511 -0.745 L 1.384 -1.125 L 1.916 -0.883 L 2.077 -0.475 L 1.872 0.026 L 1.042 0.332 L -0.065 -0.027 L -1.175 -0.324 L -1.924 0.050 L -2.068 0.543 L -1.865 0.938 L -1.273 1.131 L -0.407 0.637 L 0.218 -0.368 L 1.036 -1.080 L 1.752 -1.015 L 2.046 -0.652 L 2.010 -0.184 L 1.451 0.281 L 0.367 0.165 L -0.731 -0.281 L -1.714 -0.153 L -2.063 0.354 L -1.988 0.790 L -1.573 1.099 L -0.744 0.946 L -0.025 0.050 L 0.669 -0.883 L 1.521 -1.103 L 1.970 -0.809 L 2.069 -0.381 L 1.763 0.125 L 0.820 0.305 L -0.278 -0.124 L -1.374 -0.298 L -1.989 0.147 L -2.055 0.623 L -1.788 0.995 L -1.682 1.055" fill="none" stroke="#5eead4" stroke-width="0.12" stroke-linecap="round" stroke-linejoin="round" opacity="0.77"/>
  <path d="M 0.000 -0.000 L -1.109 -0.327 L -1.899 0.014 L -2.073 0.510 L -1.891 0.911 L -1.330 1.129 L -0.459 0.692 L 0.177 -0.303 L 0.975 -1.059 L 1.718 -1.034 L 2.035 -0.682 L 2.023 -0.220 L 1.506 0.258 L 0.436 0.189 L -0.660 -0.264 L -1.667 -0.185 L -2.057 0.316 L -2.004 0.758 L -1.615 1.080 L -0.804 0.976 L -0.062 0.111 L 0.616 -0.842 L 1.476 -1.114 L 1.952 -0.837 L 2.073 -0.416 L 1.802 0.088 L 0.895 0.314 L -0.207 -0.094 L -1.308 -0.311 L -1.968 0.110 L -2.061 0.592 L -1.816 0.971 L -1.165 1.111 L -0.314 0.510 L 0.306 -0.502 L 1.155 -1.112 L 1.812 -0.980 L 2.061 -0.602 L 1.977 -0.123 L 1.332 0.307 L 0.231 0.106 L -0.002 -0.000" fill="none" stroke="#2dd4bf" stroke-width="0.12" stroke-linecap="round" stroke-linejoin="round" opacity="0.69"/>
  <circle cx="0" cy="0" r="0.32" fill="none" stroke="#2dd4bf" stroke-width="0.05" opacity="0.2"/>
  <circle cx="0" cy="0" r="0.18" fill="#ccfbf1"/>
  <circle cx="1.954" cy="-0.840" r="0.187" fill="#99f6e4" opacity="0.28"/>
  <circle cx="1.954" cy="-0.840" r="0.085" fill="#99f6e4"/>
  <circle cx="-1.211" cy="1.125" r="0.187" fill="#5eead4" opacity="0.28"/>
  <circle cx="-1.211" cy="1.125" r="0.085" fill="#5eead4"/>
  <circle cx="-0.743" cy="-0.285" r="0.187" fill="#2dd4bf" opacity="0.28"/>
  <circle cx="-0.743" cy="-0.285" r="0.085" fill="#2dd4bf"/>
  
</svg>