<?xml version="1.0" encoding="UTF-8"?>
<svg xmlns="http://www.w3.org/2000/svg" viewBox="-3.5 -3.5 7 7" role="img" aria-label="OrigenLab">
  <rect width="7" height="7" x="-3.5" y="-3.5" fill="#042f2e"/>
  
  <path d="M 1.683 -1.054 L 2.069 -0.415 L 1.232 0.321 L -0.611 -0.253 L -1.982 0.123 L -1.926 0.868 L -0.820 0.984 L 0.345 -0.559 L 1.680 -1.058 L 2.072 -0.421 L 1.250 0.320 L -0.594 -0.247 L -1.977 0.119 L -1.926 0.867 L -0.827 0.988 L 0.337 -0.549 L 1.672 -1.064 L 2.071 -0.430 L 1.258 0.317 L -0.587 -0.245 L -1.976 0.116 L -1.932 0.865 L -0.841 0.998 L 0.326 -0.532 L 1.664 -1.064 L 1.684 -1.055" fill="none" stroke="#99f6e4" stroke-width="0.1" stroke-linecap="round" stroke-linejoin="round" opacity="0.75"/>
  <path d="M -1.683 1.054 L -0.349 0.563 L 0.812 -0.982 L 1.923 -0.875 L 1.987 -0.132 L 0.626 0.258 L -1.222 -0.320 L -2.069 0.414 L -1.688 1.055 L -0.359 0.577 L 0.798 -0.973 L 1.917 -0.880 L 1.987 -0.138 L 0.631 0.258 L -1.216 -0.323 L -2.071 0.407 L -1.698 1.051 L -0.369 0.591 L 0.788 -0.965 L 1.914 -0.880 L 1.991 -0.140 L 0.645 0.263 L -1.200 -0.324 L -2.069 0.399 L -1.702 1.046 L -1.682 1.055" fill="none" stroke="#5eead4" stroke-width="0.1" stroke-linecap="round" stroke-linejoin="round" opacity="0.67"/>
  <path d="M 0.000 -0.000 L -1.720 -0.148 L -2.045 0.661 L -1.312 1.129 L -0.005 0.009 L 1.300 -1.126 L 2.042 -0.663 L 1.724 0.145 L 0.008 0.003 L -1.714 -0.155 L -2.048 0.653 L -1.323 1.127 L -0.010 0.019 L 1.295 -1.125 L 2.043 -0.665 L 1.734 0.141 L 0.026 0.013 L -1.702 -0.161 L -2.046 0.648 L -1.327 1.125 L -0.014 0.024 L 1.287 -1.127 L 2.041 -0.674 L 1.743 0.133 L 0.038 0.018 L -0.002 -0.000" fill="none" stroke="#2dd4bf" stroke-width="0.1" stroke-linecap="round" stroke-linejoin="round" opacity="0.59"/>
  <circle cx="0" cy="0" r="0.32" fill="none" stroke="#2dd4bf" stroke-width="0.05" opacity="0.2"/>
  <circle cx="0" cy="0" r="0.18" fill="#ccfbf1"/>
  <circle cx="1.954" cy="-0.840" r="0.242" fill="#99f6e4" opacity="0.28"/>
  <circle cx="1.954" cy="-0.840" r="0.11" fill="#99f6e4"/>
  <circle cx="-1.211" cy="1.125" r="0.242" fill="#5eead4" opacity="0.28"/>
  <circle cx="-1.211" cy="1.125" r="0.11" fill="#5eead4"/>
  <circle cx="-0.743" cy="-0.285" r="0.242" fill="#2dd4bf" opacity="0.28"/>
  <circle cx="-0.743" cy="-0.285" r="0.11" fill="#2dd4bf"/>
  
</svg>