<?xml version="1.0" encoding="utf-8"?>
<!-- Generator: Adobe Illustrator 16.0.0, SVG Export Plug-In . SVG Version: 6.00 Build 0)  -->
<!DOCTYPE svg PUBLIC "-//W3C//DTD SVG 1.1//EN" "http://www.w3.org/Graphics/SVG/1.1/DTD/svg11.dtd">
<svg version="1.1" id="Layer_1" xmlns:svg="http://www.w3.org/2000/svg"
	 xmlns="http://www.w3.org/2000/svg" xmlns:xlink="http://www.w3.org/1999/xlink" x="0px" y="0px" width="145.6px" height="66.7px"
	 viewBox="0 0 145.6 66.7" enable-background="new 0 0 145.6 66.7" xml:space="preserve">
<path fill="none" stroke="#254AA5" d="M50.67,49.866H7.17c-3.75,0-6.875-3.125-6.875-6.875V7.241c0-3.75,3.125-6.875,6.875-6.875
	h131.25c3.75,0,6.875,3.125,6.875,6.875v35.75c0,3.75-3.125,6.875-6.875,6.875h-92"/>
<path fill="none" stroke="#254AA5" d="M53.295,49.616H7.42c-3.75,0-6.875-3.125-6.875-6.875v-31.5c0-3.75,3.125-6.875,6.875-6.875
	h122.625c3.75,0,6.875,3.125,6.875,6.875v31.5c0,3.75-3.125,6.875-6.875,6.875H43.92"/>
<path fill="none" stroke="#254AA5" d="M54.295,49.366H7.67c-3.75,0-6.875-3.125-6.875-6.875V16.366c0-3.75,3.125-6.875,6.875-6.875
	h114.375c3.75,0,6.875,3.125,6.875,6.875v26.125c0,3.75-3.125,6.875-6.875,6.875H42.67"/>
<path fill="#254AA5" d="M12.045,22.116h3.375v7.625l0,0c0.875-1.25,2.25-2,4-2c3,0,4.375,2.125,4.375,5v8.125H20.42v-6.875
	c0-1.625,0-3.75-2.125-3.75c-2.375,0-3,2.625-3,4.25v6.25H11.92v-18.75 M27.295,28.116h3.375v12.875h-3.375V28.116z M27.295,22.616
	h3.375v3.25h-3.375V22.616 M36.67,33.241c0.125-1.75,1.125-3,3-3s2.625,1.375,2.75,3H36.67z M44.67,37.491
	c-1.25,0.75-2.625,1.25-4.25,1.25c-2.125,0-3.5-1.125-3.625-3.25h8.875c0-4.5-1.375-7.75-6.125-7.75c-4,0-6,3.125-6,6.75
	c0,4.25,2.5,6.625,6.75,6.625c1.75,0,3.25-0.375,4.375-1v-2.75 M48.17,40.991h3.375v-18.75H48.17V40.991z M62.795,30.741
	c-1-0.375-1.75-0.5-3-0.5c-0.875,0-2,0.375-2,1.375c0,2,5.875,0.75,5.875,5.375c0,3-2.625,4.25-5.375,4.25
	c-1.25,0-2.625-0.25-3.75-0.5l0.25-2.75c1,0.5,2.125,0.875,3.25,0.875c0.875,0,2.25-0.375,2.25-1.625c0-2.5-5.875-0.75-5.875-5.5
	c0-2.75,2.375-4,5-4c1.625,0,2.625,0.25,3.625,0.5L62.795,30.741 M74.545,30.866c-0.625-0.25-1.25-0.5-2.25-0.5
	c-2.125,0-3.375,1.625-3.375,4.125c0,2.375,1.125,4.25,3.5,4.25c1,0,2-0.375,2.625-0.625l0.125,2.75c-1,0.25-2,0.375-3.375,0.375
	c-4.25,0-6.375-2.875-6.375-6.75c0-3.75,2.25-6.625,6.25-6.625c1.375,0,2.375,0.125,3.25,0.375l-0.25,2.625 M77.295,22.116h3.375
	v7.625l0,0c0.875-1.25,2.25-2,4-2c3,0,4.375,2.125,4.375,5v8.125H85.67v-6.875c0-1.625,0-3.75-2.125-3.75c-2.375,0-3,2.625-3,4.25
	v6.25H77.17v-18.75 M95.045,33.241c0.125-1.75,1.125-3,3-3s2.625,1.375,2.75,3H95.045z M103.045,37.491
	c-1.25,0.75-2.625,1.25-4.25,1.25c-2.125,0-3.5-1.125-3.625-3.25h8.875c0-4.5-1.375-7.75-6.125-7.75c-4,0-6,3.125-6,6.75
	c0,4.25,2.5,6.625,6.75,6.625c1.75,0,3.25-0.375,4.375-1v-2.75 M106.545,28.116h3v2.875l0,0c0.125-1.25,1.5-3.25,3.5-3.25
	c0.375,0,0.625,0,1,0.125v3.375c-0.25-0.125-0.875-0.25-1.5-0.25c-2.75,0-2.75,3.375-2.75,5.25v4.75h-3.375V28.116"/>
<path fill="none" stroke="#254AA5" stroke-width="2" d="M56.545,48.741h-48c-3.75,0-6.875-3.125-6.875-6.875v-19.25
	c0-3.75,3.125-6.875,6.875-6.875h106.25c3.75,0,6.875,3.125,6.875,6.875v19.25c0,3.75-3.125,6.875-6.875,6.875H40.92"/>
<path fill="#254AA5" d="M0.045,60.241c0,2.5,1.375,3.625,3.875,3.625c2.375,0,3.875-1,3.875-3.625v-6H5.92v5.5
	c0,1.625-0.5,2.625-2,2.625s-2-1-2-2.625v-5.5H0.045V60.241 M9.67,63.616h1.75V53.491H9.67V63.616z M14.045,61.616
	c0,1.375,0.75,2.25,2.25,2.25c0.5,0,1,0,1.375-0.125l-0.25-1.5c-0.125,0.125-0.5,0.125-0.75,0.125c-0.75,0-0.875-0.5-0.875-1.125
	v-3.25h1.625v-1.375h-1.625v-2l-1.75,0.625v1.375H12.67v1.375h1.375v3.5 M18.67,63.616h1.75v-2.5c0-1,0-2.875,1.5-2.875
	c0.375,0,0.625,0,0.75,0.125v-1.875c-0.25,0-0.375,0-0.5,0c-1.125,0-1.875,1.125-1.875,1.75l0,0v-1.625H18.67V63.616"/>
<path fill="#254AA5" d="M24.295,58.616c0.625-0.5,1.375-0.75,2.125-0.75c1.125,0,1.625,0.375,1.625,1.5h-1
	c-0.75,0-1.625,0.125-2.375,0.375c-0.75,0.375-1.25,1-1.25,2c0,1.375,1.25,2.125,2.375,2.125c0.875,0,1.75-0.375,2.125-1.25l0,0
	c0,0.25,0,0.625,0.125,1h1.625c0-0.5,0-1,0-1.5s0-1,0-1.75v-0.875c0-2-0.875-2.875-3-2.875c-0.75,0-1.75,0.25-2.375,0.5V58.616z
	 M25.17,61.616c0-1.125,1.25-1.25,2-1.25h0.75c0,0.5-0.125,1-0.375,1.375s-0.75,0.625-1.25,0.625c-0.625,0-1.125-0.25-1.125-0.875"
	/>
<path fill="#254AA5" d="M35.67,56.741c-0.625-0.125-1.125-0.25-2-0.25c-1.375,0-2.75,0.625-2.75,2.125c0,2.5,3.125,1.625,3.125,3
	c0,0.625-0.75,0.875-1.25,0.875c-0.625,0-1.25-0.125-1.75-0.5v1.5c0.625,0.125,1.375,0.25,2,0.25c1.5,0,2.875-0.625,2.875-2.25
	c0-2.5-3.125-1.75-3.125-2.875c0-0.625,0.625-0.75,1.125-0.75c0.625,0,1.125,0.125,1.625,0.25L35.67,56.741"/>
<path fill="#254AA5" d="M36.92,60.241c0,2,1.375,3.625,3.625,3.625s3.625-1.625,3.625-3.625c0-2.25-1.625-3.625-3.625-3.625
	S36.92,57.991,36.92,60.241z M38.795,59.991c0-1,0.625-2.125,1.75-2.125c1.25,0,1.75,1,1.75,2.125s-0.375,2.375-1.75,2.375
	S38.795,61.116,38.795,59.991"/>
<path fill="#254AA5" d="M52.045,56.741h-1.75v3.375c0,0.875-0.25,2.25-1.625,2.25c-1.125,0-1.125-1.125-1.125-2v-3.75h-1.75v4.375
	c0,1.625,0.75,2.75,2.375,2.75c1,0,1.75-0.375,2.25-1.125l0,0v1h1.75v-7 M53.92,63.616h1.75v-3.375c0-0.875,0.25-2.25,1.625-2.25
	c1.125,0,1.125,1.125,1.125,2v3.75h1.75v-4.375c0-1.625-0.75-2.75-2.375-2.75c-1,0-1.75,0.25-2.25,1.125l0,0v-1h-1.75v7"/>
<path fill="#254AA5" d="M63.545,60.116c0-0.875,0.375-2.25,1.5-2.25s1.625,1.25,1.625,2.25s-0.375,2.25-1.625,2.25
	S63.545,61.116,63.545,60.116z M66.67,63.616h1.75V53.491h-1.75v4l0,0c-0.5-0.625-1.125-1-2.125-1c-2.125,0-2.875,1.75-2.875,3.625
	s0.75,3.625,2.875,3.625c0.875,0,1.625-0.25,2.125-1l0,0v0.75"/>
<path fill="#254AA5" d="M76.045,63.616h1.875v-8h2.75v-1.5h-7.25v1.5h2.75v8"/>
<path fill="#254AA5" d="M81.42,59.491c0.125-0.875,0.625-1.625,1.625-1.625s1.375,0.75,1.5,1.625H81.42z M85.67,61.741
	c-0.625,0.375-1.375,0.75-2.25,0.75c-1.125,0-2-0.625-2-1.75h4.75c0-2.375-0.75-4.25-3.25-4.25c-2.125,0-3.25,1.625-3.25,3.625
	c0,2.25,1.375,3.625,3.625,3.625c1,0,1.75-0.25,2.375-0.5V61.741"/>
<path fill="#254AA5" d="M92.295,56.741c-0.5-0.125-1-0.25-1.75-0.25c-2.125,0-3.375,1.625-3.375,3.625
	c0,2.125,1.125,3.625,3.375,3.625c0.75,0,1.25-0.125,1.75-0.25v-1.375c-0.25,0.125-0.875,0.25-1.375,0.25
	c-1.25,0-1.875-1-1.875-2.25s0.75-2.25,1.875-2.25c0.5,0,0.875,0.125,1.25,0.25L92.295,56.741 M93.545,63.616h1.75v-3.375
	c0-0.875,0.25-2.25,1.625-2.25c1.125,0,1.125,1.125,1.125,2v3.75h1.75v-4.375c0-1.625-0.75-2.75-2.375-2.75
	c-1,0-1.75,0.375-2.125,1.125l0,0v-4.125h-1.75v10.125 M101.795,63.616h1.75v-3.375c0-0.875,0.25-2.25,1.625-2.25
	c1.125,0,1.125,1.125,1.125,2v3.75h1.75v-4.375c0-1.625-0.75-2.75-2.375-2.75c-1,0-1.75,0.25-2.25,1.125l0,0v-1h-1.75v7"/>
<path fill="#254AA5" d="M109.67,60.241c0,2,1.375,3.625,3.625,3.625s3.625-1.625,3.625-3.625c0-2.25-1.625-3.625-3.625-3.625
	S109.67,57.991,109.67,60.241z M111.545,59.991c0-1,0.625-2.125,1.75-2.125c1.25,0,1.75,1,1.75,2.125s-0.375,2.375-1.75,2.375
	S111.545,61.116,111.545,59.991"/>
<path fill="#254AA5" d="M118.42,63.616h1.75V53.491h-1.75V63.616z"/>
<path fill="#254AA5" d="M121.67,60.241c0,2,1.375,3.625,3.625,3.625s3.625-1.625,3.625-3.625c0-2.25-1.625-3.625-3.625-3.625
	S121.67,57.991,121.67,60.241z M123.545,59.991c0-1,0.625-2.125,1.75-2.125c1.25,0,1.75,1,1.75,2.125s-0.375,2.375-1.75,2.375
	S123.545,61.116,123.545,59.991 M133.295,62.241c-1,0-1.5-1.125-1.5-2.125c0-1.125,0.375-2.25,1.625-2.25c1,0,1.5,1,1.5,2.125
	s-0.5,2.125-1.625,2.125V62.241z M134.92,56.741v1l0,0c-0.5-0.75-1.25-1.125-2.125-1.125c-2.125,0-3,1.875-3,3.625
	c0,1.875,0.75,3.5,2.875,3.5c1,0,1.875-0.5,2.125-1.125l0,0c0,1.25-0.125,2.75-2.125,2.75c-0.625,0-1.5-0.25-2-0.625l-0.125,1.5
	c0.875,0.375,1.75,0.5,2.375,0.5c2.875,0,3.625-1.75,3.625-3.625v-6.25h-1.75"/>
<path fill="#254AA5" d="M139.795,56.741h-2l2.625,7.25c0,0.75-0.5,1.25-1.125,1.25c-0.5,0-0.75,0-0.875-0.125l-0.125,1.375
	c0.375,0.125,0.875,0.25,1.25,0.25c1.875,0,2.25-1.5,2.875-3l2.625-6.875h-1.875l-1.625,5.125l0,0l-1.625-5.125"/>
</svg>
