<svg width="132" height="44" viewBox="0 0 132 44" fill="none" xmlns="http://www.w3.org/2000/svg">
<path d="M92.3188 8.51403C91.9763 8.48026 91.5422 8.51403 91.2286 8.51403C90.4042 8.49108 89.5838 8.63549 88.8167 8.93852C88.2024 9.18908 87.6579 9.58464 87.2297 10.0914C86.8226 10.5895 86.5295 11.1707 86.3711 11.7942C86.1957 12.4846 86.1098 13.1947 86.1154 13.907V21.4802H80.9492V4.47173H85.8887V7.0042H85.9611C86.2083 6.52105 86.5344 6.0825 86.9258 5.70661C87.3484 5.3146 87.8282 4.98928 88.3488 4.74186C88.8917 4.47233 89.4674 4.2745 90.0613 4.15337C90.8034 3.98499 91.5627 3.90404 92.3236 3.91218" fill="#DD040A"/>
<path d="M105.667 4.53432V8.36437H101.856V16.3332C101.856 17.1082 101.996 17.6243 102.276 17.8816C102.556 18.1389 103.117 18.2675 103.959 18.2675C104.239 18.2675 104.508 18.2562 104.765 18.2337C105.012 18.214 105.259 18.1818 105.503 18.1373V21.7068C105.038 21.7757 104.569 21.8192 104.099 21.8371C103.585 21.8596 103.082 21.8708 102.59 21.8708C101.855 21.8736 101.122 21.8252 100.395 21.7261C99.7569 21.6466 99.1381 21.4555 98.5665 21.1617C98.0474 20.8879 97.6161 20.4733 97.322 19.9655C96.9907 19.3398 96.8325 18.6371 96.8637 17.9298V8.35954H94.4277V4.53432H96.8637V0H101.856V4.53432H105.667Z" fill="#DD040A"/>
<path d="M107.958 9.36282C108.431 8.28113 109.141 7.31992 110.037 6.55058C110.989 5.74674 112.088 5.13565 113.273 4.75133C114.643 4.30939 116.075 4.0943 117.514 4.11459C118.958 4.09547 120.397 4.3105 121.773 4.75133C122.965 5.13279 124.071 5.74404 125.029 6.55058C125.924 7.32026 126.635 8.28138 127.108 9.36282C127.611 10.5173 127.866 11.7647 127.856 13.024C127.874 14.2827 127.624 15.5308 127.122 16.6853C126.646 17.7593 125.936 18.7135 125.043 19.4782C124.088 20.2826 122.98 20.8878 121.787 21.2582C120.409 21.6884 118.972 21.8984 117.528 21.8804C116.091 21.8995 114.659 21.6894 113.288 21.2582C112.102 20.8851 111.002 20.28 110.051 19.4782C109.159 18.7137 108.448 17.7595 107.972 16.6853C107.467 15.5316 107.214 14.2834 107.229 13.024C107.213 11.7661 107.461 10.5186 107.958 9.36282ZM113.032 14.7172C113.177 15.288 113.44 15.8221 113.804 16.2849C114.19 16.766 114.686 17.1466 115.251 17.3943C115.965 17.6922 116.735 17.8336 117.509 17.8092C118.288 17.8321 119.064 17.6907 119.786 17.3943C120.351 17.1473 120.847 16.7665 121.233 16.2849C121.596 15.8219 121.859 15.2879 122.004 14.7172C122.155 14.1343 122.232 13.5345 122.231 12.9324C122.231 12.3255 122.155 11.7211 122.004 11.1331C121.863 10.561 121.6 10.0261 121.233 9.56542C120.842 9.08946 120.347 8.70985 119.786 8.45596C119.067 8.14989 118.29 8.00342 117.509 8.02665C116.734 8.00187 115.963 8.14846 115.251 8.45596C114.7 8.69985 114.212 9.06796 113.826 9.53154C113.44 9.99512 113.167 10.5416 113.027 11.1283C112.877 11.7162 112.801 12.3207 112.801 12.9276C112.803 13.5317 112.882 14.1331 113.037 14.7172H113.032Z" fill="#DD040A"/>
<path d="M57.9746 9.36282C58.4475 8.28113 59.1582 7.31992 60.0536 6.55058C61.0057 5.74674 62.105 5.13565 63.2903 4.75133C64.6595 4.30939 66.0918 4.0943 67.5304 4.11459C68.9753 4.09547 70.4137 4.3105 71.7898 4.75133C72.9822 5.13279 74.0883 5.74404 75.0458 6.55058C75.9409 7.32026 76.6514 8.28138 77.1248 9.36282C77.6215 10.5187 77.8697 11.7661 77.8532 13.024C77.8718 14.2827 77.6218 15.5308 77.12 16.6853C76.6434 17.7593 75.9332 18.7135 75.041 19.4782C74.0851 20.2826 72.9781 20.8878 71.785 21.2582C70.4068 21.6884 68.9693 21.8984 67.5256 21.8804C66.0882 21.8995 64.6569 21.6894 63.2855 21.2582C62.0994 20.8851 60.9992 20.28 60.0488 19.4782C59.1564 18.7137 58.4461 17.7595 57.9698 16.6853C57.4695 15.5305 57.2211 14.2823 57.2414 13.024C57.2262 11.7657 57.476 10.5183 57.9746 9.36282ZM63.0492 14.7172C63.1938 15.288 63.4568 15.8221 63.821 16.2849C64.2068 16.766 64.7033 17.1466 65.2681 17.3943C65.9824 17.6922 66.7521 17.8336 67.5256 17.8092C68.3052 17.8321 69.0809 17.6907 69.8024 17.3943C70.3675 17.1473 70.8642 16.7665 71.2495 16.2849C71.6133 15.8219 71.8762 15.2879 72.0213 14.7172C72.1724 14.1343 72.2485 13.5345 72.248 12.9324C72.2479 12.3255 72.1717 11.7211 72.0213 11.1331C71.8803 10.561 71.617 10.0261 71.2495 9.56542C70.8587 9.08946 70.3635 8.70985 69.8024 8.45596C69.0834 8.14989 68.3066 8.00342 67.5256 8.02665C66.7507 8.00187 65.9798 8.14846 65.2681 8.45596C64.7165 8.69985 64.2288 9.06796 63.843 9.53154C63.4573 9.99512 63.1839 10.5416 63.0443 11.1283C62.8939 11.7162 62.8177 12.3207 62.8176 12.9276C62.8183 13.5315 62.8961 14.1329 63.0492 14.7172Z" fill="#DD040A"/>
<path d="M2.17808 27.8283C2.77302 27.0116 3.55554 26.3498 4.45971 25.8988C5.52351 25.3614 6.6616 24.9858 7.83633 24.7845C9.25516 24.5352 10.6938 24.4157 12.1343 24.4276C13.3263 24.4273 14.5171 24.5046 15.699 24.6591C16.8028 24.7908 17.8808 25.0868 18.8972 25.537C19.8047 25.9403 20.5972 26.5637 21.2029 27.3507C21.8305 28.2361 22.1446 29.3056 22.0953 30.3897V40.2205C22.0953 41.1306 22.7385 41.5856 24.0248 41.5856C24.379 41.5894 24.7317 41.5406 25.0715 41.4409V43.3463C24.6856 43.3945 24.3448 43.4299 24.0489 43.4524C23.7531 43.4749 23.3768 43.4862 22.9202 43.4862C22.2404 43.5067 21.5613 43.4287 20.9038 43.2546C20.46 43.1361 20.0534 42.907 19.722 42.5889C19.4451 42.3074 19.2543 41.9526 19.1721 41.5663C19.081 41.135 19.0373 40.695 19.0419 40.2542H18.9358C18.3697 40.8269 17.7654 41.3604 17.1269 41.8509C16.4987 42.3272 15.8112 42.7196 15.0816 43.0182C14.255 43.3509 13.3945 43.5919 12.5154 43.737C11.3797 43.9176 10.2307 44.0015 9.08085 43.9878C7.89546 43.9944 6.71194 43.8927 5.54505 43.6839C4.53567 43.5161 3.55898 43.1906 2.65081 42.7192C1.88234 42.3181 1.22082 41.7393 0.721312 41.0309C0.241087 40.3095 -0.00176666 39.4562 0.0266938 38.5901C-0.00301554 38.0224 0.0946278 37.4554 0.312471 36.9304C0.530315 36.4054 0.86284 35.9358 1.28569 35.5559C2.25665 34.7581 3.39393 34.1878 4.61407 33.8869C6.14146 33.4774 7.70261 33.2062 9.27863 33.0765C11.0087 32.9222 12.7646 32.7726 14.5462 32.6279C15.244 32.5797 15.855 32.5202 16.3792 32.4494C16.8346 32.3987 17.2781 32.2715 17.6912 32.0732C18.0238 31.9129 18.3058 31.6643 18.5064 31.3544C18.7141 30.9823 18.8143 30.5598 18.7959 30.134C18.8243 29.4621 18.631 28.7994 18.246 28.248C17.849 27.7339 17.3254 27.3317 16.7265 27.0806C16.0085 26.774 15.2496 26.5741 14.4738 26.4873C13.56 26.3752 12.6401 26.3204 11.7194 26.3233C9.95033 26.2542 8.18997 26.6047 6.58216 27.3459C5.95746 27.6389 5.42869 28.103 5.05727 28.6845C4.68584 29.266 4.487 29.9409 4.48383 30.6309H1.17957C1.25896 29.6249 1.60349 28.6579 2.17808 27.8283ZM18.6897 33.3563C18.3644 33.6788 17.9392 33.8812 17.4838 33.9303C16.8889 34.0493 16.3647 34.1329 15.9113 34.1812C14.5124 34.3484 13.0653 34.4979 11.5699 34.6298C10.2102 34.7415 8.85864 34.9364 7.52278 35.2134C6.46043 35.4162 5.4407 35.7996 4.50795 36.347C4.13939 36.5578 3.83514 36.8649 3.62779 37.2354C3.42045 37.6059 3.31784 38.0258 3.33096 38.4502C3.31758 38.9993 3.48728 39.5372 3.81333 39.9793C4.17558 40.4493 4.63033 40.84 5.14951 41.1273C5.75216 41.4684 6.40256 41.7172 7.079 41.8654C7.81805 42.0336 8.57374 42.1177 9.33169 42.1162C10.5487 42.1208 11.7623 41.9882 12.9495 41.7207C14.0073 41.4946 15.0241 41.1074 15.9643 40.5726C16.7697 40.1154 17.4672 39.4903 18.0096 38.7396C18.5149 38.0268 18.7817 37.1724 18.7717 36.2988V33.3563H18.6897Z" fill="black"/>
<path d="M108.179 27.8283C108.774 27.0116 109.557 26.3498 110.461 25.8988C111.525 25.3614 112.663 24.9858 113.837 24.7845C115.256 24.5352 116.695 24.4157 118.135 24.4276C119.327 24.4273 120.518 24.5046 121.7 24.6591C122.804 24.7908 123.882 25.0868 124.898 25.537C125.806 25.9403 126.598 26.5637 127.204 27.3507C127.832 28.2361 128.146 29.3056 128.096 30.3897V40.2205C128.096 41.1306 128.74 41.5856 130.026 41.5856C130.38 41.5894 130.733 41.5406 131.073 41.4409V43.3463C130.687 43.3945 130.346 43.4299 130.05 43.4524C129.754 43.4749 129.378 43.4862 128.921 43.4862C128.241 43.5067 127.562 43.4287 126.905 43.2546C126.461 43.1361 126.054 42.907 125.723 42.5889C125.446 42.3074 125.255 41.9526 125.173 41.5663C125.082 41.135 125.038 40.695 125.043 40.2542H124.961C124.395 40.8269 123.791 41.3604 123.152 41.8509C122.523 42.3293 121.833 42.7233 121.102 43.0231C120.275 43.3557 119.415 43.5967 118.536 43.7418C117.4 43.9224 116.251 44.0063 115.101 43.9926C113.916 43.9993 112.732 43.8975 111.565 43.6887C110.556 43.521 109.579 43.1954 108.671 42.724C107.903 42.323 107.241 41.7441 106.742 41.0357C106.262 40.3242 106.014 39.4817 106.033 38.6238C106.003 38.0562 106.1 37.4891 106.318 36.9641C106.536 36.4391 106.869 35.9695 107.292 35.5897C108.263 34.7919 109.4 34.2216 110.62 33.9207C112.147 33.5112 113.708 33.2399 115.284 33.1103C117.015 32.9559 118.77 32.8064 120.552 32.6617C121.25 32.6134 121.861 32.5539 122.385 32.4832C122.84 32.4324 123.284 32.3052 123.697 32.1069C124.032 31.9368 124.313 31.6761 124.507 31.3544C124.715 30.9823 124.815 30.5598 124.797 30.134C124.825 29.4621 124.632 28.7994 124.247 28.248C123.85 27.7339 123.326 27.3317 122.728 27.0806C122.01 26.774 121.251 26.5741 120.475 26.4873C119.561 26.3752 118.641 26.3204 117.72 26.3233C115.951 26.2542 114.191 26.6047 112.583 27.3459C111.96 27.6392 111.433 28.1029 111.062 28.6834C110.692 29.2639 110.493 29.9374 110.49 30.6261H107.185C107.264 29.6222 107.607 28.657 108.179 27.8283ZM124.691 33.3611C124.365 33.6836 123.94 33.886 123.485 33.9351C122.89 34.0541 122.366 34.1377 121.912 34.186C120.513 34.3532 119.066 34.5027 117.571 34.6346C116.211 34.7447 114.86 34.938 113.524 35.2134C112.454 35.417 111.428 35.8038 110.49 36.3567C110.121 36.5674 109.817 36.8745 109.61 37.245C109.402 37.6155 109.3 38.0354 109.313 38.4598C109.299 39.0089 109.469 39.5469 109.795 39.9889C110.157 40.4589 110.612 40.8496 111.131 41.137C111.734 41.4781 112.384 41.7268 113.061 41.875C113.8 42.0432 114.555 42.1274 115.313 42.1259C116.53 42.1305 117.744 41.9978 118.931 41.7303C119.989 41.5042 121.006 41.117 121.946 40.5823C122.751 40.1251 123.449 39.4999 123.991 38.7492C124.497 38.0365 124.763 37.1821 124.753 36.3084V33.3563L124.691 33.3611Z" fill="black"/>
<path d="M32.2972 17.8477V43.4907H29.2969V17.8477H32.2972Z" fill="black"/>
<path d="M42.4753 24.9534V28.6243H42.5814C43.2371 27.2847 44.3487 26.2226 45.7169 25.6287C47.4679 24.7894 48.6786 24.6302 51.1243 24.7026V27.0758C50.1505 26.9889 49.1691 27.0838 48.23 27.3556C47.2305 27.6102 46.2889 28.054 45.4564 28.6628C44.6249 29.2462 43.9356 30.0096 43.4401 30.8962C42.9528 31.716 42.6992 32.6536 42.7068 33.6072V43.491H39.4219V24.9534H42.4753Z" fill="black"/>
<path d="M56.9458 37.3648C57.2917 38.2609 57.8378 39.0661 58.5425 39.7187C59.3532 40.461 60.2955 41.0451 61.321 41.4408C62.6101 41.9272 63.9811 42.1598 65.3585 42.1258C67.7703 42.1258 69.658 41.6949 71.0215 40.833C72.3199 40.0333 73.3094 38.8177 73.8289 37.384H77.1332C76.4839 39.4279 75.112 41.1651 73.2742 42.2705C71.4058 43.4185 68.7592 43.9942 65.3343 43.9974C63.4734 44.0297 61.6191 43.7676 59.8401 43.2208C58.4372 42.7926 57.1414 42.0707 56.039 41.1031C55.0851 40.2406 54.3409 39.1715 53.8635 37.9774C53.3896 36.7832 53.1489 35.5093 53.1544 34.2245C53.1567 32.9921 53.3975 31.7717 53.8635 30.6308C54.348 29.4401 55.0872 28.37 56.0293 27.4954C57.1323 26.4954 58.4295 25.7335 59.8401 25.2572C61.6203 24.659 63.4905 24.3734 65.3681 24.413C67.2631 24.3656 69.1505 24.6698 70.9347 25.3102C72.3356 25.8227 73.6127 26.6248 74.6827 27.6642C75.613 28.6051 76.3116 29.7496 76.7232 31.0071C77.139 32.2374 77.3174 33.5354 77.249 34.8323H56.4635C56.4686 35.6988 56.6321 36.557 56.9458 37.3648ZM73.2983 30.4475C72.8808 29.6372 72.3012 28.9213 71.5955 28.3444C70.7989 27.6996 69.8941 27.2014 68.9232 26.8731C67.7752 26.4868 66.5696 26.2992 65.3585 26.3184C64.1298 26.2965 62.9063 26.4841 61.7406 26.8731C60.7698 27.2014 59.8649 27.6996 59.0683 28.3444C58.353 28.9315 57.7569 29.6503 57.3125 30.462C56.8885 31.2277 56.5966 32.0594 56.449 32.9221H73.9592C73.9211 32.059 73.6956 31.2146 73.2983 30.4475Z" fill="black"/>
<path d="M97.2821 28.5615C96.8695 28.0248 96.3399 27.5893 95.7337 27.288C95.0337 26.9276 94.2844 26.6724 93.5099 26.5307C92.6281 26.372 91.7335 26.2945 90.8376 26.2991C90.0917 26.3007 89.347 26.3555 88.609 26.4632C87.8981 26.5631 87.2018 26.7477 86.5348 27.0131C85.9645 27.221 85.4461 27.5501 85.0153 27.9778C84.6298 28.3844 84.4216 28.9275 84.4365 29.4876C84.4327 29.7267 84.4798 29.9639 84.5746 30.1835C84.6694 30.403 84.8097 30.5999 84.9864 30.7611C85.3899 31.1437 85.8588 31.4509 86.3708 31.668C86.9632 31.919 87.5766 32.1176 88.2038 32.2613C88.8663 32.4156 89.4773 32.5411 90.0368 32.6375L94.4409 33.3225C95.3878 33.4193 96.3251 33.5936 97.2435 33.8435C98.1022 34.0609 98.9303 34.385 99.7084 34.8082C100.39 35.1867 100.988 35.7004 101.464 36.3181C101.921 36.9281 102.161 37.6736 102.144 38.4357C102.164 39.3886 101.807 40.3108 101.151 41.0019C100.432 41.747 99.5662 42.335 98.6086 42.7288C97.4926 43.1996 96.3203 43.5239 95.121 43.6936C93.8548 43.8836 92.5763 43.9804 91.2958 43.983C88.117 43.983 85.9897 43.4668 84.0602 42.4394C83.118 41.9736 82.312 41.2724 81.7204 40.4036C81.1288 39.5348 80.7717 38.528 80.6836 37.4806H83.9589C84.0192 38.2233 84.2767 38.9364 84.705 39.5461C85.1333 40.1559 85.7167 40.6402 86.3949 40.9488C87.9459 41.7814 89.6912 42.1844 91.4502 42.1162C92.283 42.1146 93.1147 42.055 93.9392 41.9377C94.7548 41.8275 95.5546 41.6219 96.3222 41.3251C96.9895 41.0789 97.6035 40.7072 98.1311 40.2301C98.3622 40.0246 98.5465 39.7718 98.6714 39.4888C98.7962 39.2058 98.8587 38.8993 98.8546 38.59C98.8747 38.0842 98.7023 37.5895 98.3722 37.2056C97.9973 36.8036 97.5421 36.4848 97.0361 36.2698C96.4145 35.9993 95.7684 35.7893 95.1066 35.6427C94.3894 35.4755 93.6643 35.3324 92.9311 35.2134L88.6862 34.567C87.6024 34.3773 86.6071 34.1554 85.7003 33.9014C84.8729 33.6813 84.0734 33.3673 83.3174 32.9656C82.6879 32.6384 82.1417 32.1714 81.7207 31.6004C81.3214 31.0146 81.1186 30.3169 81.1418 29.6082C81.1238 28.716 81.4523 27.8515 82.0584 27.1964C82.726 26.4959 83.5395 25.9508 84.4413 25.5997C85.4939 25.1726 86.5933 24.8714 87.7166 24.7025C88.9034 24.5118 90.1034 24.4151 91.3055 24.4131C92.5813 24.4041 93.8547 24.5237 95.1066 24.77C96.189 24.978 97.2323 25.354 98.1986 25.8843C99.0365 26.3404 99.7617 26.9782 100.321 27.7511C100.859 28.5299 101.168 29.444 101.213 30.3897H97.9092C97.8912 29.7306 97.6724 29.0928 97.2821 28.5615Z" fill="black"/>
</svg>
